<?xml version="1.0" encoding="UTF-8"?>
<svg id="Layer_2" data-name="Layer 2" xmlns="http://www.w3.org/2000/svg" xmlns:xlink="http://www.w3.org/1999/xlink" viewBox="0 0 170.5 56.69">
  <defs>
    <style>
      .cls-1 {
        clip-path: url(#clippath);
      }

      .cls-2 {
        fill: none;
      }

      .cls-2, .cls-3, .cls-4, .cls-5, .cls-6 {
        stroke-width: 0px;
      }

      .cls-3 {
        fill: url(#linear-gradient);
      }

      .cls-7 {
        clip-path: url(#clippath-1);
      }

      .cls-8 {
        clip-path: url(#clippath-3);
      }

      .cls-9 {
        clip-path: url(#clippath-2);
      }

      .cls-4 {
        fill: url(#linear-gradient-4);
      }

      .cls-5 {
        fill: url(#linear-gradient-2);
      }

      .cls-6 {
        fill: url(#linear-gradient-3);
      }
    </style>
    <clipPath id="clippath">
      <path class="cls-2" d="M21.3,33.87c-.74-4.09-.81-6.53-.27-10.43.1-.73.39-1.51,1.8-1.82.39-.09.82-.13,1.29-.13,1.49,0,3.35.43,5.21,1.23,2.4,1.03,4.46,2.54,5.37,3.94.82,1.26.38,1.85.17,2.14l.07.05c-.85,1.01-1.75,1.82-2.45,2.4-2.78,2.28-6.19,3.83-8.7,3.95-.11,0-.22,0-.32,0-1.91,0-2.08-.93-2.16-1.33M6.53,46.54c-2.07-4.82-2.65-11.79-2.97-18.61-.47-10.09,1.14-17.14,4.79-20.96,2.23-2.34,5.21-3.48,9.1-3.48,1.36,0,2.85.15,4.41.43,4.78.88,10.9,3.1,16.73,6.18,6.79,4.58,10.29,8.99,10.4,13.12.1,3.63-2.36,7.29-7.54,11.18-1.36,1.02-6.24,4.56-12.17,7.24-5.21,2.36-9.35,3.19-11.97,2.4-1.46-.44-2.4-1.36-2.95-2.91-2.87-8-3.55-20.19.33-25.93,1.26-1.86,2.85-2.79,4.87-2.87,5.3-.2,12.85,1.78,16.31,5.41,1.42,1.49,2.03,3.08,1.88,4.89-.05.63-.17,1.24-.35,1.82-1.35-1.9-3.78-3.69-6.72-4.95-3.14-1.34-6.29-1.82-8.63-1.29-2.56.57-4.15,2.26-4.5,4.75-.59,4.28-.51,7.08.3,11.53.51,2.78,2.78,4.34,6.08,4.18,3.25-.16,7.37-1.98,10.74-4.74,3.9-3.2,6.23-7.11,6.55-11.01.23-2.78-.75-5.4-2.84-7.59-2.6-2.72-6.38-4.28-9.09-5.1-3.27-.99-6.87-1.49-9.87-1.39-3.12.11-5.75,1.63-7.62,4.4-2.72,4.02-3.29,9.7-3.3,13.76,0,5.16.93,10.73,2.57,15.3.92,2.57,2.73,4.33,5.24,5.08.96.29,2.02.43,3.17.43,3.07,0,6.83-1,11.24-3,6.25-2.83,11.4-6.55,12.82-7.63,6.14-4.62,9.06-9.22,8.93-14.06-.03-1.23-.27-2.46-.72-3.69.22.22.43.43.64.65,2.83,2.98,3.79,6.26,2.86,9.74-1.08,4.05-4.61,8.29-10.2,12.25-5.67,4.02-13,7.43-21.21,9.87-2.82.84-5.33,1.26-7.46,1.26-4.84,0-7.88-2.06-9.86-6.67M17.46,0c-4.83,0-8.74,1.53-11.62,4.56-2.18,2.28-3.77,5.44-4.72,9.37C.17,17.81-.17,22.58.08,28.09c.33,7.15.95,14.49,3.24,19.83,1.22,2.84,2.82,4.93,4.88,6.4,2.22,1.58,4.97,2.38,8.19,2.38,2.47,0,5.32-.47,8.46-1.41,8.57-2.55,16.25-6.14,22.23-10.37,6.27-4.44,10.26-9.35,11.56-14.19,1.25-4.67-.03-9.18-3.7-13.04-3.68-3.88-9.1-7.77-15.28-10.97C33.77,3.65,27.68,1.45,22.5.49c-1.77-.33-3.47-.49-5.04-.49Z"/>
    </clipPath>
    <linearGradient id="linear-gradient" x1="-329.17" y1="330.88" x2="-328.17" y2="330.88" gradientTransform="translate(19453.98 19583.27) scale(59.1 -59.1)" gradientUnits="userSpaceOnUse">
      <stop offset="0" stop-color="#194e82"/>
      <stop offset=".15" stop-color="#194e82"/>
      <stop offset=".22" stop-color="#295082"/>
      <stop offset=".35" stop-color="#545883"/>
      <stop offset=".54" stop-color="#9a6384"/>
      <stop offset=".7" stop-color="#dc6f86"/>
      <stop offset="1" stop-color="#f27286"/>
      <stop offset="1" stop-color="#f27286"/>
    </linearGradient>
    <clipPath id="clippath-1">
      <path class="cls-2" d="M75.47,20.31c-.53,0-.92.07-1.17.22-.25.15-.38.44-.38.87v2.17c0,.48.09.92.27,1.3.18.39.4.72.68.99.28.27.59.49.94.64.36.15.71.23,1.07.23h15.38c.32,0,.6-.11.82-.34.23-.23.34-.5.34-.82s-.11-.59-.34-.82c-.23-.22-.5-.34-.82-.34h-15.26c-.23,0-.41-.06-.55-.18-.14-.12-.21-.26-.21-.42v-1.18h15.47c.32,0,.6-.11.82-.34.23-.23.34-.5.34-.82s-.11-.6-.34-.82c-.23-.23-.5-.34-.82-.34h-16.25ZM75.09,16.21c-.32,0-.6.11-.82.34-.23.23-.34.5-.34.82s.11.6.34.82c.23.23.5.34.82.34h17.17c.32,0,.6-.11.82-.34.23-.23.34-.5.34-.82s-.11-.6-.34-.82c-.23-.23-.5-.34-.82-.34h-17.17ZM96.91,16.55c-.23.23-.34.5-.34.82v8.21c0,.32.11.6.34.82.23.23.5.34.82.34s.6-.11.82-.34c.23-.23.34-.5.34-.82v-8.21c0-.32-.11-.6-.34-.82-.23-.23-.5-.34-.82-.34s-.6.11-.82.34"/>
    </clipPath>
    <linearGradient id="linear-gradient-2" x1="-321.43" y1="336.84" x2="-320.43" y2="336.84" gradientTransform="translate(8099.1 8431.41) scale(24.97 -24.97)" gradientUnits="userSpaceOnUse">
      <stop offset="0" stop-color="#f58e84"/>
      <stop offset=".95" stop-color="#f05b72"/>
      <stop offset="1" stop-color="#f27286"/>
    </linearGradient>
    <clipPath id="clippath-2">
      <path class="cls-2" d="M102.38,16.55c-.23.23-.34.5-.34.82v6.16c0,.45.09.87.27,1.25.18.39.42.73.71,1.01.3.29.65.52,1.05.69.4.17.83.25,1.28.25h14.46c.32,0,.6-.11.82-.34.23-.23.34-.5.34-.82s-.11-.59-.34-.82c-.23-.22-.5-.34-.82-.34h-14.53c-.24,0-.46-.09-.64-.27-.19-.18-.28-.39-.28-.63v-6.16c0-.32-.12-.6-.35-.82-.23-.23-.5-.34-.81-.34-.32,0-.6.11-.82.34M124.46,16.55c-.23.23-.34.5-.34.82v8.21c0,.32.11.6.34.82.23.23.5.34.82.34s.6-.11.82-.34c.23-.23.34-.5.34-.82v-8.21c0-.32-.11-.6-.34-.82-.23-.23-.5-.34-.82-.34s-.6.11-.82.34M146.43,16.55c-.23.23-.34.5-.34.82v4.76c0,.58-.03,1.02-.1,1.33-.07.31-.22.46-.46.46-.13,0-.29-.05-.5-.16-.2-.1-.46-.25-.76-.42l-11.09-6.76c-.18-.11-.38-.2-.59-.26-.22-.06-.44-.1-.67-.1-.66,0-1.22.22-1.66.68-.44.45-.67,1.01-.67,1.67v7.03c0,.32.11.6.34.82.23.23.5.34.82.34s.6-.11.82-.34c.23-.23.34-.5.34-.82v-4.76c0-.58.03-1.02.1-1.33.06-.31.22-.46.46-.46.13,0,.29.05.5.16.2.11.46.25.76.42l11.09,6.76c.18.11.38.2.59.26.22.07.44.1.67.1.66,0,1.21-.23,1.66-.68.44-.45.67-1.01.67-1.67v-7.03c0-.32-.11-.6-.34-.82-.23-.23-.5-.34-.82-.34s-.6.11-.82.34M168.51,16.55c-.64.47-1.32.93-2.02,1.38-.7.45-1.44.85-2.2,1.21s-1.55.64-2.36.86c-.81.22-1.63.33-2.47.33h-5.59v-2.95c0-.32-.11-.6-.34-.82-.23-.23-.5-.34-.82-.34-.31,0-.57.11-.8.34-.23.23-.34.5-.34.82v8.21c0,.32.11.6.34.82.23.23.5.34.82.34.31,0,.57-.11.8-.34.23-.23.34-.5.34-.82v-2.94h5.59c.84,0,1.66.1,2.47.31.81.21,1.59.49,2.35.85.76.35,1.49.76,2.19,1.21.7.45,1.38.92,2.04,1.4.28.23.55.34.82.34.32,0,.6-.11.82-.34.23-.23.34-.5.34-.82,0-.22-.06-.42-.19-.59-.13-.17-.28-.32-.46-.45-.42-.32-.82-.62-1.21-.91-.39-.28-.78-.54-1.16-.78-.39-.24-.79-.48-1.2-.7-.41-.22-.85-.45-1.32-.68.47-.22.91-.45,1.32-.68.41-.23.81-.46,1.2-.7.39-.24.78-.5,1.16-.78.39-.28.79-.58,1.21-.91.18-.13.33-.28.46-.45.13-.17.19-.37.19-.59,0-.32-.11-.6-.34-.82-.22-.23-.5-.34-.82-.34-.27,0-.55.11-.82.34"/>
    </clipPath>
    <linearGradient id="linear-gradient-3" x1="-329.95" y1="329.85" x2="-328.95" y2="329.85" gradientTransform="translate(22690.26 22603.39) scale(68.46 -68.46)" gradientUnits="userSpaceOnUse">
      <stop offset="0" stop-color="#287b9a"/>
      <stop offset="1" stop-color="#133f6d"/>
    </linearGradient>
    <clipPath id="clippath-3">
      <path class="cls-2" d="M78.35,34.53h3.56c.36,0,.64.08.83.23.19.15.29.38.29.67s-.1.52-.29.67c-.19.16-.47.23-.83.23h-3.56v-1.81ZM77.3,33.57v6.67h1.05v-2.92h2.91l1.9,2.92h1.14l-1.86-2.94c.49-.08.89-.29,1.19-.64.31-.35.46-.76.46-1.23,0-.59-.19-1.04-.58-1.37-.39-.33-.92-.49-1.61-.49h-4.6ZM159.05,34.53h3.55c.36,0,.64.08.83.23.19.15.29.38.29.67s-.1.52-.29.67c-.19.16-.47.23-.83.23h-3.55v-1.81ZM158,33.57v6.67h1.05v-2.92h2.91l1.89,2.92h1.14l-1.86-2.94c.49-.08.89-.29,1.2-.64.3-.35.46-.76.46-1.23,0-.59-.19-1.04-.58-1.37-.39-.33-.92-.49-1.61-.49h-4.6ZM107,34.52h1.93c.76,0,1.38.22,1.85.66.47.45.71,1.02.71,1.72s-.23,1.31-.68,1.73c-.45.43-1.08.64-1.87.64h-1.93v-4.76ZM105.95,33.56v6.69h2.97c1.12,0,2-.3,2.66-.91.66-.6.98-1.41.98-2.42s-.33-1.81-1-2.43c-.67-.62-1.55-.93-2.64-.93h-2.97ZM127.91,33.56v6.69h6.56v-.96h-5.51v-2.11h3.43v-.96h-3.43v-1.67h5.22v-.98h-6.27ZM140.61,33.56v4.7l-4.25-4.7h-.55v6.69h1.03v-4.68l4.24,4.68h.55v-6.69h-1.03ZM142.54,33.56v.93h2.82v5.76h1.04v-5.76h2.83v-.93h-6.69ZM150.1,33.56v6.69h6.56v-.96h-5.51v-2.11h3.43v-.96h-3.43v-1.67h5.22v-.98h-6.27ZM119.8,34.38c-.76.67-1.14,1.52-1.14,2.54s.38,1.87,1.14,2.53c.76.67,1.73,1,2.9,1,.79,0,1.49-.16,2.11-.47.62-.32,1.12-.77,1.5-1.37l-.84-.58c-.34.5-.74.86-1.2,1.1-.46.24-.98.35-1.57.35-.85,0-1.56-.24-2.12-.73-.56-.49-.85-1.1-.85-1.84s.28-1.35.84-1.84c.56-.49,1.27-.73,2.12-.73.55,0,1.06.1,1.51.31.45.21.82.5,1.09.88l.83-.58c-.37-.5-.85-.89-1.44-1.16-.6-.27-1.26-.41-1.99-.41-1.17,0-2.14.34-2.9,1.01M92.65,38.96c-.38-.34-.57-.79-.57-1.34,0-.51.18-.97.53-1.38.35-.41.89-.77,1.6-1.07l2.66,3.12c-.44.39-.89.68-1.34.88-.46.19-.92.29-1.38.29-.62,0-1.12-.17-1.5-.51M91.17,31.6l2.37,2.81c-.89.44-1.54.92-1.97,1.45-.42.53-.63,1.13-.63,1.81,0,.85.29,1.53.88,2.04.59.51,1.37.77,2.35.77.59,0,1.15-.11,1.68-.33.53-.22,1.09-.58,1.67-1.06l.96,1.09h1.38l-1.54-1.79c.17-.15.32-.3.46-.45.14-.16.27-.32.39-.49l-.69-.88c-.11.14-.22.28-.35.42-.13.14-.3.32-.53.55l-4.23-4.99h4.06l-.6-.95h-5.68Z"/>
    </clipPath>
    <linearGradient id="linear-gradient-4" x1="-331.02" y1="328.97" x2="-330.02" y2="328.97" gradientTransform="translate(29105.55 28884.23) scale(87.69 -87.69)" xlink:href="#linear-gradient"/>
  </defs>
  <g id="Layer_1-2" data-name="Layer 1">
    <g>
      <g class="cls-1">
        <rect class="cls-3" x="-.17" y="0" width="60.06" height="56.69"/>
      </g>
      <g class="cls-7">
        <rect class="cls-5" x="73.92" y="16.21" width="24.97" height="10.53"/>
      </g>
      <g class="cls-9">
        <rect class="cls-6" x="102.04" y="16.21" width="68.46" height="10.53"/>
      </g>
      <g class="cls-8">
        <rect class="cls-4" x="77.3" y="31.6" width="87.69" height="8.89"/>
      </g>
    </g>
  </g>
</svg>