<?xml version="1.0" encoding="utf-8"?>
<!-- Generator: Adobe Illustrator 24.3.0, SVG Export Plug-In . SVG Version: 6.00 Build 0)  -->
<svg version="1.1" id="Layer_1" xmlns="http://www.w3.org/2000/svg" xmlns:xlink="http://www.w3.org/1999/xlink" x="0px" y="0px"
	 viewBox="0 0 198.43 85.04" style="enable-background:new 0 0 198.43 85.04;" xml:space="preserve">
<style type="text/css">
	.st0{clip-path:url(#SVGID_2_);fill:url(#SVGID_3_);}
	.st1{clip-path:url(#SVGID_5_);fill:url(#SVGID_6_);}
	.st2{clip-path:url(#SVGID_8_);fill:url(#SVGID_9_);}
	.st3{clip-path:url(#SVGID_11_);fill:url(#SVGID_12_);}
</style>
<g>
	<defs>
		<path id="SVGID_1_" d="M34.14,49.06c-0.74-4.09-0.81-6.53-0.27-10.43c0.1-0.73,0.39-1.51,1.8-1.82c0.39-0.09,0.82-0.13,1.29-0.13
			c1.49,0,3.35,0.43,5.21,1.23c2.4,1.03,4.46,2.54,5.37,3.94c0.82,1.26,0.38,1.85,0.17,2.14l0.07,0.05
			c-0.85,1.01-1.75,1.82-2.45,2.4c-2.78,2.28-6.19,3.83-8.7,3.95c-0.11,0.01-0.22,0.01-0.32,0.01
			C34.38,50.39,34.21,49.47,34.14,49.06 M19.37,61.73c-2.07-4.82-2.65-11.79-2.97-18.61c-0.47-10.09,1.15-17.14,4.79-20.96
			c2.24-2.34,5.21-3.48,9.1-3.48c1.36,0,2.85,0.15,4.41,0.43c4.78,0.88,10.9,3.1,16.73,6.18c6.79,4.58,10.29,8.99,10.4,13.12
			c0.1,3.63-2.36,7.29-7.54,11.18c-1.36,1.02-6.24,4.56-12.17,7.24c-5.21,2.36-9.35,3.19-11.97,2.4c-1.46-0.44-2.4-1.36-2.95-2.91
			c-2.87-8-3.55-20.19,0.33-25.93c1.26-1.86,2.85-2.79,4.87-2.87c5.29-0.2,12.85,1.78,16.31,5.41c1.42,1.49,2.03,3.08,1.88,4.89
			c-0.05,0.63-0.17,1.24-0.35,1.82c-1.35-1.9-3.78-3.69-6.72-4.95c-3.14-1.34-6.29-1.82-8.63-1.29c-2.56,0.57-4.15,2.26-4.5,4.75
			c-0.59,4.28-0.51,7.08,0.3,11.53c0.51,2.78,2.78,4.34,6.08,4.18c3.25-0.16,7.37-1.97,10.74-4.74c3.9-3.2,6.23-7.11,6.55-11.01
			c0.23-2.78-0.75-5.4-2.84-7.59c-2.6-2.72-6.38-4.28-9.09-5.1c-3.27-0.99-6.87-1.49-9.87-1.39c-3.12,0.11-5.75,1.63-7.62,4.4
			c-2.72,4.02-3.29,9.7-3.3,13.76c0,5.15,0.93,10.73,2.57,15.3c0.92,2.57,2.73,4.33,5.24,5.08c0.96,0.29,2.02,0.43,3.17,0.43
			c3.07,0,6.83-1,11.24-3c6.25-2.83,11.4-6.56,12.82-7.63c6.14-4.62,9.06-9.22,8.93-14.06c-0.03-1.23-0.27-2.46-0.72-3.69
			c0.22,0.22,0.43,0.43,0.64,0.65c2.83,2.98,3.79,6.26,2.86,9.74c-1.08,4.05-4.61,8.29-10.2,12.25c-5.67,4.01-13,7.43-21.21,9.87
			c-2.82,0.84-5.33,1.26-7.46,1.26C24.39,68.4,21.35,66.34,19.37,61.73 M30.3,15.19c-4.83,0-8.74,1.53-11.62,4.56
			c-2.18,2.28-3.77,5.44-4.72,9.37c-0.94,3.88-1.29,8.65-1.03,14.16c0.33,7.15,0.95,14.49,3.24,19.83c1.22,2.84,2.82,4.93,4.88,6.4
			c2.22,1.58,4.97,2.38,8.19,2.38c2.47,0,5.32-0.47,8.46-1.41c8.57-2.55,16.25-6.14,22.23-10.37c6.27-4.44,10.26-9.35,11.56-14.19
			c1.25-4.67-0.03-9.18-3.7-13.04C64.09,29,58.67,25.1,52.5,21.9c-5.89-3.05-11.98-5.26-17.16-6.21
			C33.57,15.36,31.87,15.19,30.3,15.19z"/>
	</defs>
	<clipPath id="SVGID_2_">
		<use xlink:href="#SVGID_1_"  style="overflow:visible;"/>
	</clipPath>
	
		<linearGradient id="SVGID_3_" gradientUnits="userSpaceOnUse" x1="-316.3344" y1="346.0733" x2="-315.3344" y2="346.0733" gradientTransform="matrix(59.0997 0 0 -59.0997 18708.0957 20496.3574)">
		<stop  offset="0" style="stop-color:#194E82"/>
		<stop  offset="0.15" style="stop-color:#194E82"/>
		<stop  offset="0.2094" style="stop-color:#325083"/>
		<stop  offset="0.3266" style="stop-color:#5E5483"/>
		<stop  offset="0.4902" style="stop-color:#935D84"/>
		<stop  offset="0.6924" style="stop-color:#D96E86"/>
		<stop  offset="0.7" style="stop-color:#DC6F86"/>
		<stop  offset="0.9956" style="stop-color:#F27286"/>
		<stop  offset="1" style="stop-color:#F27286"/>
	</linearGradient>
	<rect x="12.66" y="15.19" class="st0" width="60.06" height="56.69"/>
</g>
<g>
	<defs>
		<path id="SVGID_4_" d="M88.31,35.5c-0.53,0-0.92,0.07-1.17,0.22c-0.25,0.15-0.38,0.44-0.38,0.87v2.17c0,0.48,0.09,0.92,0.27,1.3
			c0.18,0.39,0.4,0.72,0.68,0.99c0.28,0.28,0.59,0.49,0.94,0.64c0.36,0.15,0.71,0.23,1.07,0.23h15.38c0.32,0,0.6-0.11,0.82-0.34
			c0.23-0.23,0.34-0.5,0.34-0.82c0-0.32-0.11-0.59-0.34-0.82c-0.23-0.22-0.5-0.34-0.82-0.34H89.84c-0.23,0-0.41-0.06-0.55-0.18
			c-0.14-0.12-0.21-0.26-0.21-0.42v-1.18h15.47c0.32,0,0.6-0.11,0.82-0.34c0.23-0.23,0.34-0.5,0.34-0.82s-0.11-0.6-0.34-0.82
			c-0.23-0.23-0.5-0.34-0.82-0.34H88.31z M87.92,31.4c-0.32,0-0.6,0.11-0.82,0.34c-0.23,0.23-0.34,0.5-0.34,0.82s0.11,0.6,0.34,0.82
			c0.23,0.23,0.5,0.34,0.82,0.34h17.17c0.32,0,0.6-0.11,0.82-0.34c0.23-0.23,0.34-0.5,0.34-0.82s-0.11-0.6-0.34-0.82
			c-0.23-0.23-0.5-0.34-0.82-0.34H87.92z M109.74,31.74c-0.23,0.23-0.34,0.5-0.34,0.82v8.21c0,0.32,0.11,0.6,0.34,0.82
			c0.23,0.23,0.5,0.34,0.82,0.34c0.32,0,0.6-0.11,0.82-0.34c0.23-0.23,0.34-0.5,0.34-0.82v-8.21c0-0.32-0.11-0.6-0.34-0.82
			c-0.23-0.23-0.5-0.34-0.82-0.34C110.24,31.4,109.97,31.51,109.74,31.74"/>
	</defs>
	<clipPath id="SVGID_5_">
		<use xlink:href="#SVGID_4_"  style="overflow:visible;"/>
	</clipPath>
	
		<linearGradient id="SVGID_6_" gradientUnits="userSpaceOnUse" x1="-308.589" y1="352.0305" x2="-307.589" y2="352.0305" gradientTransform="matrix(24.9673 0 0 -24.9673 7791.4058 8825.9277)">
		<stop  offset="0" style="stop-color:#F58E84"/>
		<stop  offset="0.95" style="stop-color:#F05B72"/>
		<stop  offset="1" style="stop-color:#F27286"/>
	</linearGradient>
	<rect x="86.76" y="31.4" class="st1" width="24.97" height="10.53"/>
</g>
<g>
	<defs>
		<path id="SVGID_7_" d="M115.22,31.74c-0.23,0.23-0.34,0.5-0.34,0.82v6.16c0,0.45,0.09,0.87,0.27,1.26
			c0.18,0.39,0.42,0.72,0.71,1.01c0.3,0.29,0.65,0.52,1.05,0.69c0.4,0.17,0.83,0.25,1.28,0.25h14.46c0.32,0,0.6-0.11,0.82-0.34
			c0.23-0.23,0.34-0.5,0.34-0.82c0-0.32-0.11-0.59-0.34-0.82c-0.23-0.22-0.5-0.34-0.82-0.34h-14.53c-0.24,0-0.46-0.09-0.64-0.27
			c-0.19-0.18-0.28-0.39-0.28-0.63v-6.16c0-0.32-0.12-0.6-0.35-0.82c-0.23-0.23-0.5-0.34-0.81-0.34
			C115.72,31.4,115.44,31.51,115.22,31.74 M137.3,31.74c-0.23,0.23-0.34,0.5-0.34,0.82v8.21c0,0.32,0.11,0.6,0.34,0.82
			c0.23,0.23,0.5,0.34,0.82,0.34c0.32,0,0.6-0.11,0.82-0.34c0.23-0.23,0.34-0.5,0.34-0.82v-8.21c0-0.32-0.11-0.6-0.34-0.82
			c-0.23-0.23-0.5-0.34-0.82-0.34C137.8,31.4,137.53,31.51,137.3,31.74 M159.26,31.74c-0.23,0.23-0.34,0.5-0.34,0.82v4.76
			c0,0.58-0.03,1.02-0.1,1.33c-0.07,0.31-0.22,0.46-0.46,0.46c-0.13,0-0.29-0.05-0.5-0.16c-0.2-0.1-0.46-0.25-0.76-0.42l-11.09-6.76
			c-0.18-0.11-0.38-0.2-0.59-0.26c-0.22-0.06-0.44-0.1-0.67-0.1c-0.66,0-1.22,0.22-1.66,0.68c-0.44,0.45-0.67,1.01-0.67,1.67v7.03
			c0,0.32,0.11,0.6,0.34,0.82c0.23,0.23,0.5,0.34,0.82,0.34s0.6-0.11,0.82-0.34c0.23-0.23,0.34-0.5,0.34-0.82v-4.76
			c0-0.58,0.03-1.02,0.1-1.33c0.06-0.31,0.22-0.46,0.46-0.46c0.13,0,0.29,0.05,0.5,0.16c0.2,0.11,0.46,0.25,0.76,0.42l11.09,6.76
			c0.18,0.11,0.38,0.2,0.59,0.26c0.22,0.06,0.44,0.1,0.67,0.1c0.66,0,1.21-0.23,1.66-0.68c0.44-0.45,0.67-1.01,0.67-1.67v-7.03
			c0-0.32-0.11-0.6-0.34-0.82c-0.23-0.23-0.5-0.34-0.82-0.34C159.77,31.4,159.49,31.51,159.26,31.74 M181.35,31.74
			c-0.64,0.47-1.32,0.93-2.02,1.38c-0.7,0.45-1.44,0.85-2.2,1.21s-1.55,0.64-2.36,0.86c-0.81,0.22-1.63,0.33-2.47,0.33h-5.59v-2.95
			c0-0.32-0.11-0.6-0.34-0.82c-0.23-0.23-0.5-0.34-0.82-0.34c-0.31,0-0.57,0.11-0.8,0.34c-0.23,0.23-0.34,0.5-0.34,0.82v8.21
			c0,0.32,0.11,0.6,0.34,0.82c0.23,0.23,0.5,0.34,0.82,0.34c0.31,0,0.57-0.11,0.8-0.34c0.23-0.23,0.34-0.5,0.34-0.82v-2.94h5.59
			c0.84,0,1.66,0.1,2.47,0.31c0.81,0.21,1.59,0.49,2.35,0.85c0.76,0.35,1.49,0.76,2.19,1.21c0.7,0.45,1.38,0.92,2.04,1.4
			c0.28,0.23,0.55,0.34,0.82,0.34c0.32,0,0.6-0.11,0.82-0.34c0.23-0.23,0.34-0.5,0.34-0.82c0-0.22-0.06-0.42-0.19-0.59
			c-0.13-0.17-0.28-0.32-0.46-0.45c-0.42-0.32-0.82-0.62-1.21-0.91c-0.39-0.28-0.78-0.54-1.16-0.78c-0.39-0.24-0.79-0.48-1.2-0.7
			c-0.41-0.22-0.85-0.45-1.32-0.68c0.47-0.22,0.91-0.45,1.32-0.68c0.41-0.23,0.81-0.46,1.2-0.7c0.39-0.24,0.78-0.5,1.16-0.78
			c0.39-0.28,0.79-0.58,1.21-0.91c0.18-0.13,0.33-0.28,0.46-0.45c0.13-0.17,0.19-0.37,0.19-0.59c0-0.32-0.11-0.6-0.34-0.82
			c-0.22-0.23-0.5-0.34-0.82-0.34C181.9,31.4,181.62,31.51,181.35,31.74"/>
	</defs>
	<clipPath id="SVGID_8_">
		<use xlink:href="#SVGID_7_"  style="overflow:visible;"/>
	</clipPath>
	
		<linearGradient id="SVGID_9_" gradientUnits="userSpaceOnUse" x1="-317.109" y1="345.0478" x2="-316.109" y2="345.0478" gradientTransform="matrix(68.4602 0 0 -68.4602 21824.207 23658.6895)">
		<stop  offset="0" style="stop-color:#287B9A"/>
		<stop  offset="1" style="stop-color:#133F6D"/>
	</linearGradient>
	<rect x="114.88" y="31.4" class="st2" width="68.46" height="10.53"/>
</g>
<g>
	<defs>
		<path id="SVGID_10_" d="M91.19,49.73h3.56c0.36,0,0.64,0.08,0.83,0.23c0.19,0.15,0.29,0.38,0.29,0.67s-0.1,0.52-0.29,0.67
			c-0.19,0.16-0.47,0.23-0.83,0.23h-3.56V49.73z M90.14,48.76v6.67h1.05v-2.92h2.91l1.9,2.92h1.14l-1.86-2.94
			c0.49-0.08,0.89-0.29,1.19-0.64c0.31-0.35,0.46-0.76,0.46-1.23c0-0.58-0.19-1.04-0.58-1.37c-0.39-0.33-0.92-0.49-1.61-0.49H90.14z
			 M171.89,49.73h3.55c0.36,0,0.64,0.08,0.83,0.23c0.19,0.15,0.29,0.38,0.29,0.67s-0.1,0.52-0.29,0.67
			c-0.19,0.16-0.47,0.23-0.83,0.23h-3.55V49.73z M170.84,48.76v6.67h1.05v-2.92h2.91l1.89,2.92h1.14l-1.86-2.94
			c0.49-0.08,0.89-0.29,1.2-0.64c0.3-0.35,0.46-0.76,0.46-1.23c0-0.58-0.19-1.04-0.58-1.37c-0.39-0.33-0.92-0.49-1.61-0.49H170.84z
			 M119.84,49.71h1.93c0.76,0,1.38,0.22,1.85,0.67c0.47,0.44,0.71,1.02,0.71,1.72c0,0.73-0.23,1.31-0.68,1.74
			c-0.45,0.42-1.08,0.64-1.87,0.64h-1.93V49.71z M118.79,48.75v6.69h2.97c1.12,0,2-0.3,2.66-0.9c0.66-0.6,0.98-1.41,0.98-2.42
			c0-1-0.33-1.81-1-2.43c-0.67-0.62-1.55-0.93-2.64-0.93H118.79z M140.74,48.75v6.69h6.56v-0.96h-5.51v-2.11h3.43V51.4h-3.43v-1.67
			h5.22v-0.98H140.74z M153.45,48.75v4.7l-4.25-4.7h-0.55v6.69h1.03v-4.68l4.24,4.68h0.55v-6.69H153.45z M155.37,48.75v0.93h2.82
			v5.76h1.04v-5.76h2.83v-0.93H155.37z M162.94,48.75v6.69h6.56v-0.96h-5.51v-2.11h3.43V51.4h-3.43v-1.67h5.22v-0.98H162.94z
			 M132.64,49.57c-0.76,0.67-1.14,1.52-1.14,2.54c0,1.02,0.38,1.87,1.14,2.53c0.76,0.67,1.73,1,2.9,1c0.79,0,1.49-0.16,2.11-0.47
			c0.62-0.32,1.12-0.77,1.5-1.37l-0.84-0.58c-0.34,0.5-0.74,0.86-1.2,1.1c-0.46,0.24-0.98,0.35-1.57,0.35
			c-0.85,0-1.56-0.24-2.12-0.73c-0.56-0.49-0.85-1.1-0.85-1.84c0-0.74,0.28-1.35,0.84-1.84c0.56-0.49,1.27-0.73,2.12-0.73
			c0.55,0,1.06,0.1,1.51,0.31c0.45,0.21,0.82,0.5,1.09,0.88l0.83-0.58c-0.37-0.5-0.85-0.89-1.44-1.16c-0.6-0.27-1.26-0.41-1.99-0.41
			C134.37,48.57,133.4,48.9,132.64,49.57 M105.49,54.16c-0.38-0.34-0.57-0.79-0.57-1.34c0-0.51,0.18-0.97,0.53-1.38
			c0.35-0.41,0.89-0.77,1.6-1.07l2.66,3.12c-0.44,0.39-0.89,0.68-1.34,0.88c-0.46,0.19-0.92,0.29-1.38,0.29
			C106.37,54.67,105.87,54.5,105.49,54.16 M104,46.79l2.37,2.81c-0.89,0.44-1.54,0.92-1.97,1.45c-0.42,0.53-0.63,1.13-0.63,1.81
			c0,0.85,0.29,1.53,0.88,2.04c0.59,0.51,1.37,0.77,2.35,0.77c0.59,0,1.15-0.11,1.68-0.33c0.53-0.22,1.09-0.58,1.67-1.06l0.96,1.09
			h1.38l-1.54-1.79c0.17-0.15,0.32-0.3,0.46-0.45c0.14-0.16,0.27-0.32,0.39-0.49l-0.69-0.88c-0.11,0.14-0.22,0.28-0.35,0.42
			c-0.13,0.14-0.3,0.32-0.53,0.54l-4.23-4.99h4.06l-0.6-0.95H104z"/>
	</defs>
	<clipPath id="SVGID_11_">
		<use xlink:href="#SVGID_10_"  style="overflow:visible;"/>
	</clipPath>
	
		<linearGradient id="SVGID_12_" gradientUnits="userSpaceOnUse" x1="-318.1817" y1="344.1593" x2="-317.1817" y2="344.1593" gradientTransform="matrix(87.6934 0 0 -87.6934 27992.5801 30231.7383)">
		<stop  offset="0" style="stop-color:#194E82"/>
		<stop  offset="0.15" style="stop-color:#194E82"/>
		<stop  offset="0.2094" style="stop-color:#325083"/>
		<stop  offset="0.3266" style="stop-color:#5E5483"/>
		<stop  offset="0.4902" style="stop-color:#935D84"/>
		<stop  offset="0.6924" style="stop-color:#D96E86"/>
		<stop  offset="0.7" style="stop-color:#DC6F86"/>
		<stop  offset="0.9956" style="stop-color:#F27286"/>
		<stop  offset="1" style="stop-color:#F27286"/>
	</linearGradient>
	<rect x="90.14" y="46.79" class="st3" width="87.69" height="8.89"/>
</g>
</svg>
