<svg width="185" height="114" viewBox="0 0 185 114" fill="none" xmlns="http://www.w3.org/2000/svg">
<mask id="mask0_188_26" style="mask-type:luminance" maskUnits="userSpaceOnUse" x="0" y="0" width="185" height="114">
<path d="M184.25 0H0V113.39H184.25V0Z" fill="white"/>
</mask>
<g mask="url(#mask0_188_26)">
<path d="M166.5 82.43L163.09 86.99L159.71 82.43H154.54L160.9 91.75V95.63H165.27V91.75L171.66 82.43H166.5ZM131.88 82.43V86.8H138.41V95.63H142.78V86.8H149.31V82.43H131.88ZM122.11 95.63H126.48V82.43H122.11V95.63ZM110.77 88.65H105.87V86.28H110.7C111.28 86.28 112.4 86.32 112.4 87.42C112.41 88.52 111.4 88.65 110.77 88.65ZM101.5 82.43V95.63H105.87V92.51H109.84L112.08 95.61L117.14 95.63L114.44 91.73C115.72 91.03 116.86 89.72 116.86 87.27C116.86 82.59 112.42 82.42 111.18 82.42H101.5V82.43ZM81.3301 82.43V95.62H95.8901V91.96H85.7001V90.77H95.2401V87.25H85.7001V86.1H95.8901V82.44H81.3301V82.43ZM71.7701 82.43L67.4501 91.78L63.1001 82.43H58.0901L64.5901 95.63H70.3101L76.7701 82.43H71.7701ZM46.8801 89.61L48.5801 86.16L50.2801 89.61H46.8801ZM52.0001 82.47H45.1901L39.2801 95.63H44.3301L45.3201 93.42H51.8401L52.8301 95.63H57.9101L52.0001 82.47ZM38.3401 82.43H33.7201L30.6801 89.83L27.5501 82.43H23.3601L20.2901 89.9L17.2001 82.43H12.5801L18.1701 95.63H22.4101L25.4801 88.6L28.6101 95.57L28.5901 95.63H32.8201L32.8001 95.57L38.3401 82.43Z" fill="#144571"/>
</g>
<path d="M143.88 70.13H140.87L142.37 71.92H142.39L143.88 70.13ZM146.29 67.25H138.44L139.94 69.04H144.79L146.29 67.25ZM148.71 64.37H136.03L137.53 66.16H147.21L148.71 64.37ZM151.12 61.49H133.61L135.11 63.28H149.62L151.12 61.49ZM153.54 58.61H131.2L132.7 60.4H152.05L153.54 58.61ZM155.95 55.72H128.77L130.27 57.51H154.45L155.95 55.72ZM158.37 52.84H126.36L127.86 54.63H156.87L158.37 52.84ZM160.78 49.96H123.94L125.44 51.75H159.29L160.78 49.96ZM94.9705 71.05H93.6505L94.3005 71.83H94.3205L94.9705 71.05ZM97.0705 68.51H91.5305L92.1805 69.29H96.4205L97.0705 68.51ZM99.1705 65.97H89.4005L90.0505 66.75H98.5205L99.1705 65.97ZM101.27 63.43H87.2805L87.9305 64.21H100.62L101.27 63.43ZM103.37 60.89H85.1605L85.8105 61.67H102.72L103.37 60.89ZM105.47 58.35H83.0305L83.6805 59.13H104.82L105.47 58.35ZM107.57 55.81H80.9105L81.5605 56.59H106.92L107.57 55.81ZM109.66 53.27H78.7905L79.4405 54.05H109.02L109.66 53.27ZM111.76 50.73H76.6605L77.3105 51.51H111.11L111.76 50.73ZM113.86 48.19H74.5405L75.1905 48.97H113.22L113.86 48.19ZM44.3005 71.05H42.9305L43.5805 71.83H43.6405L44.3005 71.05ZM46.4305 68.51H40.8005L41.4505 69.29H45.7705L46.4305 68.51ZM48.5705 65.97H38.6705L39.3205 66.75H47.9105L48.5705 65.97ZM50.7005 63.43H36.5405L37.1905 64.21H50.0405L50.7005 63.43ZM52.8305 60.89H34.4005L35.0505 61.67H52.1705L52.8305 60.89ZM54.9605 58.35H32.4105L33.0605 59.13H54.3005L54.9605 58.35ZM57.0905 55.81H30.2805L30.9305 56.59H56.4405L57.0905 55.81ZM59.2305 53.27H28.1405L28.7905 54.05H58.5605L59.2305 53.27ZM61.3605 50.73H26.0105L26.6605 51.51H60.7005L61.3605 50.73ZM63.4905 48.19H23.8705L24.5205 48.97H62.8205L63.4905 48.19ZM9.59047 31.18H29.6605L29.0505 30.45H8.98047L9.59047 31.18ZM11.7305 33.72H31.7905L31.1405 32.94H11.0705L11.7305 33.72ZM13.8605 36.26H33.9205L33.2705 35.48H13.2005L13.8605 36.26ZM15.9905 38.8H36.0405L35.3905 38.02H15.3405L15.9905 38.8ZM18.1305 41.34H38.1805L37.5305 40.56H17.4705L18.1305 41.34ZM20.2605 43.88H40.3005L39.6505 43.1H19.6105L20.2605 43.88ZM22.4005 46.42H42.4305L41.7805 45.64H21.7405L22.4005 46.42ZM65.6205 45.64H45.6105L44.9505 46.42H64.9605L65.6205 45.64ZM67.7505 43.1H47.7405L47.0805 43.88H67.1005L67.7505 43.1ZM68.4405 18.48H69.6605L69.0505 17.76L68.4405 18.48ZM66.3005 21.02H71.7805L71.1305 20.24H66.9605L66.3005 21.02ZM64.1705 23.56H73.9205L73.2605 22.78H64.8205L64.1705 23.56ZM62.0305 26.1H76.0505L75.4005 25.32H62.6905L62.0305 26.1ZM59.9005 28.64H78.1805L77.5305 27.86H60.5505L59.9005 28.64ZM57.7605 31.18H80.3105L79.6605 30.4H58.4205L57.7605 31.18ZM55.6305 33.72H82.4505L81.8005 32.94H56.2805L55.6305 33.72ZM53.4905 36.26H84.5705L83.9205 35.48H54.1505L53.4905 36.26ZM51.3605 38.8H86.7105L86.0605 38.02H52.0105L51.3605 38.8ZM49.2205 41.34H88.8405L88.1905 40.56H49.8805L49.2205 41.34ZM70.9405 43.88H90.9705L90.3205 43.1H70.2905L70.9405 43.88ZM73.0705 46.42H93.1005L92.4505 45.64H72.4205L73.0705 46.42ZM113.23 45.64H95.9405L95.2805 46.42H113.88L113.23 45.64ZM111.12 43.1H98.0805L97.4205 43.88H111.76L111.12 43.1ZM103.86 36.26H105.42L104.77 35.48H104.52L103.86 36.26ZM101.72 38.8H107.54L106.89 38.02H102.38L101.72 38.8ZM109.65 41.34L109 40.56H100.23L99.5705 41.34H109.65ZM110.93 34.46H130.94L129.44 32.67H109.43L110.93 34.46ZM113.35 37.34H133.37L131.87 35.55H111.86L113.35 37.34ZM115.77 40.22H135.79L134.29 38.43H114.27L115.77 40.22ZM118.19 43.1H138.21L136.71 41.31H116.69L118.19 43.1ZM120.6 45.98H140.62L139.12 44.19H119.1L120.6 45.98ZM163.2 47.08H143.16L142.35 48.04L141.54 47.08H121.52L123.02 48.87H161.7L163.2 47.08ZM165.61 44.2H145.57L144.07 45.99H164.11L165.61 44.2ZM168.03 41.31H148L146.5 43.1H166.54L168.03 41.31ZM170.44 38.43H150.41L148.91 40.22H168.94L170.44 38.43ZM172.86 35.55H152.83L151.33 37.34H171.36L172.86 35.55ZM175.27 32.67H155.25L153.75 34.46H173.77L175.27 32.67Z" fill="#144571"/>
</svg>
