<svg width="185" height="114" viewBox="0 0 185 114" fill="none" xmlns="http://www.w3.org/2000/svg">
<path d="M114.89 47.19L104.94 35.23L94.4803 47.61L69.3403 17.65L43.9803 47.82L29.3403 30.35H9.28027L34.0003 59.78L33.9303 59.86L43.9203 71.76L69.3303 41.48L94.6203 71.73L114.89 47.19ZM175.11 32.44H155.09L142.17 47.84L129.25 32.44H109.24L142.2 71.73L175.11 32.44Z" fill="#F15A22"/>
<mask id="mask0_186_17" style="mask-type:luminance" maskUnits="userSpaceOnUse" x="0" y="0" width="185" height="114">
<path d="M184.25 0H0V113.39H184.25V0Z" fill="white"/>
</mask>
<g mask="url(#mask0_186_17)">
<path d="M166.57 82.3201L163.16 86.8801L159.78 82.3201H154.61L160.97 91.6501V95.5301H165.34V91.6501L171.73 82.3201H166.57ZM131.95 82.3201V86.6901H138.48V95.5201H142.85V86.6901H149.38V82.3201H131.95ZM122.18 95.5201H126.55V82.3301H122.18V95.5201ZM110.84 88.5401H105.94V86.1701H110.77C111.35 86.1701 112.47 86.2101 112.47 87.3101C112.47 88.4101 111.47 88.5401 110.84 88.5401ZM101.57 82.3201V95.5201H105.94V92.4001H109.91L112.15 95.5001L117.21 95.5201L114.51 91.6201C115.79 90.9201 116.93 89.6101 116.93 87.1601C116.93 82.4801 112.49 82.3101 111.25 82.3101H101.57V82.3201ZM81.4004 82.3301V95.5201H95.9604V91.8601H85.7704V90.6701H95.3104V87.1501H85.7704V85.9801H95.9604V82.3201H81.4004V82.3301ZM71.8304 82.3201L67.5104 91.6701L63.1604 82.3201H58.1504L64.6504 95.5201H70.3704L76.8304 82.3201H71.8304ZM46.9504 89.5001L48.6504 86.0501L50.3504 89.5001H46.9504ZM52.0704 82.3701H45.2604L39.3504 95.5301H44.4004L45.3904 93.3201H51.9104L52.9004 95.5301H57.9804L52.0704 82.3701ZM38.4104 82.3201H33.7904L30.7504 89.7201L27.6204 82.3201H23.4304L20.3604 89.7901L17.2704 82.3201H12.6504L18.2404 95.5201H22.4804L25.5504 88.4901L28.6804 95.4601L28.6604 95.5201H32.8904L32.8704 95.4601L38.4104 82.3201Z" fill="#383733"/>
</g>
</svg>
